<svg height="512" viewBox="0 0 32 32" width="512" xmlns="http://www.w3.org/2000/svg"><g id="cloud_upload" data-name="cloud upload"><path d="m25.8 1.25h-19.6a4.952 4.952 0 0 0 -4.95 4.95v19.6a4.952 4.952 0 0 0 4.95 4.95h19.6a4.952 4.952 0 0 0 4.95-4.95v-19.6a4.952 4.952 0 0 0 -4.95-4.95zm-9.05 23.75a.75.75 0 0 1 -1.5 0v-8.989l-1.195 1.195a.75.75 0 0 1 -1.061-1.061l2.476-2.475a.75.75 0 0 1 1.061 0l2.475 2.475a.75.75 0 0 1 -1.061 1.061l-1.195-1.195zm7.29-4.65h-6.04a.75.75 0 0 1 0-1.5h6.04a1.443 1.443 0 0 0 0-2.885h-.588a.75.75 0 0 1 -.649-1.126 3.635 3.635 0 0 0 -3.149-5.452 3.665 3.665 0 0 0 -.468.03.75.75 0 0 1 -.647-.235 4.453 4.453 0 0 0 -7.69 2.471.75.75 0 0 1 -.732.658 2.175 2.175 0 0 0 -2.051 2.782.75.75 0 0 1 -.51.93 1.443 1.443 0 0 0 .4 2.828h6.044a.75.75 0 0 1 0 1.5h-6.04a2.942 2.942 0 0 1 -1.462-5.5 3.675 3.675 0 0 1 2.966-3.979 5.953 5.953 0 0 1 9.91-2.981q.139-.007.279-.008a5.138 5.138 0 0 1 4.915 6.626 2.943 2.943 0 0 1 -.53 5.837z" fill-rule="evenodd"/></g></svg>