<?xml version="1.0" encoding="UTF-8"?>
<svg id="Capa_2" xmlns="http://www.w3.org/2000/svg" viewBox="0 0 299.57 131.78">
  <defs>
    <style>
      .cls-1 {
        fill: #fff;
      }
    </style>
  </defs>
  <g id="Capa_2-2" data-name="Capa_2">
    <g>
      <path class="cls-1" d="M133.28,27.36c-2.25-.9-4.82.19-5.72,2.44-.62,1.55-.28,3.23.71,4.44-1.19,1.75-2.71,3.34-4.55,4.75-.12-.23-.24-.46-.36-.69,0-.02-.02-.04-.03-.06-5.32-9.99-13.23-18.31-22.98-24.1-15.61-9.27-34.39-11.21-51.43-5.59l-5.07-3.29c.16-.83.09-1.73-.27-2.57-.95-2.23-3.54-3.27-5.77-2.32-2.23.95-3.27,3.54-2.32,5.77.46,1.08,1.32,1.92,2.41,2.36.53.21,1.09.32,1.64.32.58,0,1.17-.12,1.72-.35.28-.12.55-.27.79-.44l3,1.95c-.82.33-1.63.65-2.44,1.02C24,19.44,10.74,36.47,7.11,56.54c-2.1,11.61-.83,23.53,3.67,34.46h0s0,0,0,0l.02.06c-2.45,1.79-4.44,3.84-5.96,6.15-1.9-.19-3.78.86-4.53,2.71h0c-.9,2.25.19,4.82,2.44,5.73.54.21,1.09.32,1.63.32,1.74,0,3.4-1.04,4.09-2.76.62-1.55.28-3.23-.71-4.44,1.16-1.69,2.62-3.24,4.39-4.61.12.23.24.46.36.69.01.02.02.05.04.07,5.32,9.99,13.23,18.3,22.98,24.1,9.79,5.81,20.82,8.75,31.89,8.75,7.57,0,15.15-1.38,22.36-4.15l4.5,2.93c-.17.86-.08,1.74.27,2.56.46,1.08,1.32,1.92,2.41,2.36.53.21,1.09.32,1.64.32.58,0,1.17-.12,1.72-.35,1.08-.46,1.92-1.32,2.36-2.41s.43-2.29-.03-3.37c-.46-1.08-1.32-1.92-2.41-2.36-1.09-.44-2.29-.43-3.37.03-.28.12-.55.27-.79.44l-2.62-1.71c18.49-8.49,31.68-25.47,35.29-45.47,2.1-11.61.83-23.53-3.67-34.46h0s0,0,0,0l-.03-.07c2.53-1.81,4.57-3.91,6.13-6.28.15.02.3.04.44.04,1.74,0,3.4-1.04,4.09-2.76.9-2.25-.19-4.82-2.44-5.72ZM121.28,41.98C80.94,79.12,24.86,89.5,14.72,91.11c7.64-6.48,51.84-42.14,106.56-49.13ZM15.05,86.7c5.42-13.93,22.54-29.2,44.27-39.09,14.68-6.68,29.83-10.16,42.47-10.16,5.46,0,10.45.65,14.73,1.97-49.36,7.71-89.51,37.58-101.47,47.27ZM120.67,46.82c-5.58,13.83-22.58,28.91-44.12,38.71-21.17,9.63-43.34,12.62-57.53,8.07,16.15-3.01,64.62-14.32,101.65-46.78ZM53.87,35.66c19.1-8.69,39.29-5.38,52.5-1.28-13.93-.99-31.27,2.56-48.36,10.33-16.08,7.31-29.46,17.24-37.97,27.66,5.72-12.67,16.09-28.64,33.83-36.71ZM13.79,79.41c.92-15.47,6.44-43.4,33.27-55.6,7.84-3.56,15.55-4.98,22.88-4.98,17.02,0,31.91,7.64,41.11,13.76-13.47-4.73-36.62-9.78-58.5.18-22.84,10.39-33.97,33.14-38.76,46.65ZM82,97.48c-19.13,8.7-39.34,5.37-52.56,1.26,1.55.11,3.12.19,4.75.19,13.03,0,28.45-3.58,43.66-10.5,16.09-7.32,29.48-17.25,37.99-27.69-5.72,12.67-16.08,28.65-33.85,36.74ZM122.08,53.73c-.92,15.47-6.44,43.4-33.27,55.6-26.03,11.84-50.84-.03-63.99-8.78,13.47,4.73,36.61,9.78,58.5-.18,22.84-10.39,33.97-33.14,38.76-46.65ZM10.24,57.11c3.44-19.04,16.03-35.2,33.67-43.23,17.64-8.02,38.12-6.91,54.79,2.99,6.5,3.86,12.13,8.9,16.67,14.84-12.89-9.16-40.44-24.08-69.63-10.8C17.15,33.92,11.48,63.6,10.6,79.69c-1.58-7.4-1.72-15.06-.36-22.59ZM125.63,76.04c-3.44,19.04-16.03,35.21-33.67,43.23-17.64,8.03-38.12,6.91-54.79-2.99-6.5-3.86-12.14-8.9-16.67-14.84,9.23,6.56,25.97,16.07,45.45,16.07,7.73,0,15.89-1.5,24.17-5.27,28.59-13.01,34.26-42.69,35.14-58.79,1.58,7.4,1.72,15.06.36,22.59Z"/>
      <g>
        <path class="cls-1" d="M172.43,35.3c-1.43,1.38-3.61,2.07-6.53,2.07h-4.82v10.48h-3.28v-25.09h8.1c2.83,0,4.99.68,6.46,2.05,1.48,1.37,2.21,3.13,2.21,5.29s-.71,3.82-2.14,5.2ZM169.93,33.49c.86-.79,1.3-1.92,1.3-3.38,0-3.1-1.78-4.64-5.33-4.64h-4.82v9.22h4.82c1.82,0,3.17-.4,4.03-1.19Z"/>
        <path class="cls-1" d="M201.58,22.76v25.09h-3.28v-11.38h-12.78v11.38h-3.28v-25.09h3.28v11.02h12.78v-11.02h3.28Z"/>
        <path class="cls-1" d="M215.76,46.46c-1.92-1.09-3.44-2.62-4.55-4.57-1.12-1.96-1.67-4.16-1.67-6.61s.56-4.65,1.67-6.61c1.12-1.96,2.63-3.48,4.55-4.57,1.92-1.09,4.04-1.64,6.37-1.64s4.49.55,6.41,1.64c1.92,1.09,3.43,2.61,4.54,4.55,1.1,1.94,1.66,4.15,1.66,6.62s-.55,4.68-1.66,6.62c-1.1,1.94-2.62,3.46-4.54,4.55s-4.06,1.64-6.41,1.64-4.45-.55-6.37-1.64ZM226.87,44.03c1.4-.82,2.51-1.98,3.31-3.49.8-1.51,1.21-3.26,1.21-5.26s-.4-3.77-1.21-5.27c-.8-1.5-1.9-2.66-3.29-3.47-1.39-.82-2.98-1.22-4.75-1.22s-3.36.41-4.75,1.22c-1.39.82-2.49,1.97-3.29,3.47-.8,1.5-1.21,3.26-1.21,5.27s.4,3.74,1.21,5.26c.8,1.51,1.91,2.68,3.31,3.49,1.4.82,2.98,1.22,4.73,1.22s3.33-.41,4.73-1.22Z"/>
        <path class="cls-1" d="M262.38,47.85h-3.28l-13.18-19.98v19.98h-3.28v-25.13h3.28l13.18,19.94v-19.94h3.28v25.13Z"/>
        <path class="cls-1" d="M274.83,25.42v8.39h9.14v2.7h-9.14v8.64h10.22v2.7h-13.5v-25.13h13.5v2.7h-10.22Z"/>
      </g>
      <g>
        <path class="cls-1" d="M163.82,82.35v6.15c0,7.41-3.71,11.64-10.85,11.64s-10.85-4.23-10.85-11.64v-24.08c0-7.41,3.71-11.64,10.85-11.64s10.85,4.23,10.85,11.64v4.5h-6.88v-4.96c0-3.31-1.46-4.57-3.77-4.57s-3.77,1.26-3.77,4.57v25.01c0,3.31,1.46,4.5,3.77,4.5s3.77-1.19,3.77-4.5v-6.62h6.88Z"/>
        <path class="cls-1" d="M175.2,53.31v35.73c0,3.31,1.46,4.5,3.77,4.5s3.77-1.19,3.77-4.5v-35.73h6.88v35.26c0,7.41-3.71,11.64-10.85,11.64s-10.85-4.23-10.85-11.64v-35.26h7.28Z"/>
        <path class="cls-1" d="M204.37,52.78c7.08,0,10.72,4.23,10.72,11.64v1.46h-6.88v-1.92c0-3.31-1.32-4.57-3.64-4.57s-3.64,1.26-3.64,4.57c0,9.53,14.23,11.31,14.23,24.55,0,7.41-3.71,11.64-10.85,11.64s-10.85-4.23-10.85-11.64v-2.84h6.88v3.31c0,3.31,1.46,4.5,3.77,4.5s3.77-1.19,3.77-4.5c0-9.53-14.22-11.31-14.22-24.55,0-7.41,3.64-11.64,10.72-11.64Z"/>
        <path class="cls-1" d="M217.21,53.31h22.5v6.62h-7.61v39.7h-7.28v-39.7h-7.61v-6.62Z"/>
        <path class="cls-1" d="M242.28,64.42c0-7.41,3.9-11.64,11.05-11.64s11.05,4.23,11.05,11.64v24.08c0,7.41-3.9,11.64-11.05,11.64s-11.05-4.23-11.05-11.64v-24.08ZM249.56,88.97c0,3.31,1.46,4.57,3.77,4.57s3.77-1.26,3.77-4.57v-25.01c0-3.31-1.46-4.57-3.77-4.57s-3.77,1.26-3.77,4.57v25.01Z"/>
        <path class="cls-1" d="M284.49,86.19l4.96-32.88h10.12v46.31h-6.88v-33.21l-5.03,33.21h-6.88l-5.43-32.75v32.75h-6.35v-46.31h10.12l5.36,32.88Z"/>
      </g>
      <g>
        <path class="cls-1" d="M192.71,109.81c.74-1.3,1.74-2.32,3.01-3.06,1.27-.74,2.68-1.1,4.24-1.1,1.82,0,3.42.44,4.78,1.32,1.36.88,2.35,2.13,2.98,3.74h-2.62c-.46-1.01-1.13-1.78-2-2.33s-1.92-.82-3.13-.82-2.22.27-3.14.82c-.93.54-1.66,1.32-2.18,2.32s-.79,2.17-.79,3.52.26,2.49.79,3.49,1.26,1.77,2.18,2.32c.93.54,1.98.82,3.14.82s2.26-.27,3.13-.8,1.54-1.31,2-2.32h2.62c-.62,1.6-1.62,2.84-2.98,3.71-1.36.87-2.95,1.31-4.78,1.31-1.55,0-2.96-.36-4.24-1.09-1.27-.73-2.28-1.74-3.01-3.04-.74-1.3-1.1-2.76-1.1-4.39s.37-3.1,1.1-4.4Z"/>
        <path class="cls-1" d="M220.83,118.87h-7.3l-1.34,3.72h-2.3l6.05-16.63h2.52l6.02,16.63h-2.3l-1.34-3.72ZM220.21,117.09l-3.02-8.45-3.02,8.45h6.05Z"/>
        <path class="cls-1" d="M229.46,122.17c-.87-.39-1.56-.94-2.05-1.63-.5-.7-.75-1.5-.77-2.41h2.33c.08.78.4,1.44.97,1.98.57.54,1.4.8,2.48.8s1.86-.26,2.46-.78c.6-.52.9-1.19.9-2,0-.64-.18-1.16-.53-1.56-.35-.4-.79-.7-1.32-.91-.53-.21-1.24-.43-2.14-.67-1.1-.29-1.99-.58-2.65-.86s-1.23-.74-1.7-1.36c-.47-.62-.71-1.44-.71-2.48,0-.91.23-1.72.7-2.42.46-.7,1.12-1.25,1.96-1.63s1.8-.58,2.89-.58c1.57,0,2.85.39,3.85,1.18s1.56,1.82,1.69,3.12h-2.4c-.08-.64-.42-1.2-1.01-1.69-.59-.49-1.38-.73-2.35-.73-.91,0-1.66.24-2.23.71-.58.47-.86,1.13-.86,1.98,0,.61.17,1.1.52,1.49.34.38.77.68,1.27.88s1.21.43,2.12.68c1.1.3,1.99.6,2.66.9s1.25.75,1.73,1.37c.48.62.72,1.45.72,2.51,0,.82-.22,1.58-.65,2.3s-1.07,1.3-1.92,1.75c-.85.45-1.85.67-3,.67s-2.09-.2-2.96-.59Z"/>
        <path class="cls-1" d="M243.39,107.64v5.59h6.1v1.8h-6.1v5.76h6.82v1.8h-9v-16.75h9v1.8h-6.82Z"/>
      </g>
      <rect class="cls-1" x="256.34" y="112.24" width="43.22" height="3.75"/>
      <rect class="cls-1" x="142.12" y="112.24" width="43.22" height="3.75"/>
    </g>
  </g>
</svg>